<mxfile host="app.diagrams.net" agent="Mozilla/5.0 (Windows NT 10.0; Win64; x64) AppleWebKit/537.36 (KHTML, like Gecko) Chrome/135.0.0.0 Safari/537.36" version="26.2.14">
  <diagram name="Page-1" id="2YBvvXClWsGukQMizWep">
    <mxGraphModel dx="881" dy="594" grid="1" gridSize="10" guides="1" tooltips="1" connect="1" arrows="1" fold="1" page="1" pageScale="1" pageWidth="1100" pageHeight="850" math="0" shadow="0">
      <root>
        <mxCell id="0" />
        <mxCell id="1" parent="0" />
        <mxCell id="1x29o_3ZwKhWgOv2N2SG-2" value="用户" style="shape=umlLifeline;perimeter=lifelinePerimeter;whiteSpace=wrap;html=1;container=1;dropTarget=0;collapsible=0;recursiveResize=0;outlineConnect=0;portConstraint=eastwest;newEdgeStyle={&quot;curved&quot;:0,&quot;rounded&quot;:0};fontFamily=宋体;fontSize=14;" parent="1" vertex="1">
          <mxGeometry x="20" y="50" width="80" height="270" as="geometry" />
        </mxCell>
        <mxCell id="1x29o_3ZwKhWgOv2N2SG-4" value="" style="html=1;points=[[0,0,0,0,5],[0,1,0,0,-5],[1,0,0,0,5],[1,1,0,0,-5]];perimeter=orthogonalPerimeter;outlineConnect=0;targetShapes=umlLifeline;portConstraint=eastwest;newEdgeStyle={&quot;curved&quot;:0,&quot;rounded&quot;:0};fontFamily=宋体;fontSize=14;" parent="1x29o_3ZwKhWgOv2N2SG-2" vertex="1">
          <mxGeometry x="35" y="50" width="10" height="200" as="geometry" />
        </mxCell>
        <mxCell id="1x29o_3ZwKhWgOv2N2SG-3" value="前端界面" style="shape=umlLifeline;perimeter=lifelinePerimeter;whiteSpace=wrap;html=1;container=1;dropTarget=0;collapsible=0;recursiveResize=0;outlineConnect=0;portConstraint=eastwest;newEdgeStyle={&quot;curved&quot;:0,&quot;rounded&quot;:0};fontFamily=宋体;fontSize=14;" parent="1" vertex="1">
          <mxGeometry x="160" y="50" width="80" height="270" as="geometry" />
        </mxCell>
        <mxCell id="1x29o_3ZwKhWgOv2N2SG-5" value="" style="html=1;points=[[0,0,0,0,5],[0,1,0,0,-5],[1,0,0,0,5],[1,1,0,0,-5]];perimeter=orthogonalPerimeter;outlineConnect=0;targetShapes=umlLifeline;portConstraint=eastwest;newEdgeStyle={&quot;curved&quot;:0,&quot;rounded&quot;:0};fontFamily=宋体;fontSize=14;" parent="1x29o_3ZwKhWgOv2N2SG-3" vertex="1">
          <mxGeometry x="35" y="50" width="10" height="200" as="geometry" />
        </mxCell>
        <mxCell id="1x29o_3ZwKhWgOv2N2SG-6" value="Controller" style="shape=umlLifeline;perimeter=lifelinePerimeter;whiteSpace=wrap;html=1;container=1;dropTarget=0;collapsible=0;recursiveResize=0;outlineConnect=0;portConstraint=eastwest;newEdgeStyle={&quot;curved&quot;:0,&quot;rounded&quot;:0};fontFamily=宋体;fontSize=14;" parent="1" vertex="1">
          <mxGeometry x="310" y="50" width="80" height="270" as="geometry" />
        </mxCell>
        <mxCell id="1x29o_3ZwKhWgOv2N2SG-7" value="" style="html=1;points=[[0,0,0,0,5],[0,1,0,0,-5],[1,0,0,0,5],[1,1,0,0,-5]];perimeter=orthogonalPerimeter;outlineConnect=0;targetShapes=umlLifeline;portConstraint=eastwest;newEdgeStyle={&quot;curved&quot;:0,&quot;rounded&quot;:0};fontFamily=宋体;fontSize=14;" parent="1x29o_3ZwKhWgOv2N2SG-6" vertex="1">
          <mxGeometry x="35" y="50" width="10" height="200" as="geometry" />
        </mxCell>
        <mxCell id="1x29o_3ZwKhWgOv2N2SG-8" value="MyBatis Mapper" style="shape=umlLifeline;perimeter=lifelinePerimeter;whiteSpace=wrap;html=1;container=1;dropTarget=0;collapsible=0;recursiveResize=0;outlineConnect=0;portConstraint=eastwest;newEdgeStyle={&quot;curved&quot;:0,&quot;rounded&quot;:0};fontFamily=宋体;fontSize=14;" parent="1" vertex="1">
          <mxGeometry x="465" y="50" width="80" height="270" as="geometry" />
        </mxCell>
        <mxCell id="1x29o_3ZwKhWgOv2N2SG-9" value="" style="html=1;points=[[0,0,0,0,5],[0,1,0,0,-5],[1,0,0,0,5],[1,1,0,0,-5]];perimeter=orthogonalPerimeter;outlineConnect=0;targetShapes=umlLifeline;portConstraint=eastwest;newEdgeStyle={&quot;curved&quot;:0,&quot;rounded&quot;:0};fontFamily=宋体;fontSize=14;" parent="1x29o_3ZwKhWgOv2N2SG-8" vertex="1">
          <mxGeometry x="35" y="50" width="10" height="200" as="geometry" />
        </mxCell>
        <mxCell id="1x29o_3ZwKhWgOv2N2SG-74" value="" style="group" parent="1" vertex="1" connectable="0">
          <mxGeometry x="214.88472440944884" y="240" width="130.36220472440942" height="26" as="geometry" />
        </mxCell>
        <mxCell id="1x29o_3ZwKhWgOv2N2SG-62" value="更新表格显示" style="text;html=1;align=center;verticalAlign=middle;whiteSpace=wrap;rounded=0;fontSize=14;fontFamily=宋体;" parent="1x29o_3ZwKhWgOv2N2SG-74" vertex="1">
          <mxGeometry width="117.79527559055119" height="26" as="geometry" />
        </mxCell>
        <mxCell id="1x29o_3ZwKhWgOv2N2SG-63" value="" style="endArrow=classic;html=1;rounded=0;" parent="1x29o_3ZwKhWgOv2N2SG-74" target="1x29o_3ZwKhWgOv2N2SG-5" edge="1">
          <mxGeometry width="50" height="50" relative="1" as="geometry">
            <mxPoint x="130.36220472440942" y="24" as="sourcePoint" />
            <mxPoint x="-4.204724409448829" y="24" as="targetPoint" />
          </mxGeometry>
        </mxCell>
        <mxCell id="ad1gADm1mFAbiEcde9q4-3" value="" style="group" parent="1" vertex="1" connectable="0">
          <mxGeometry x="65" y="102.31" width="130" height="30" as="geometry" />
        </mxCell>
        <mxCell id="ad1gADm1mFAbiEcde9q4-1" value="" style="endArrow=classic;html=1;rounded=0;fontSize=14;fontFamily=宋体;" parent="ad1gADm1mFAbiEcde9q4-3" edge="1">
          <mxGeometry width="50" height="50" relative="1" as="geometry">
            <mxPoint y="30" as="sourcePoint" />
            <mxPoint x="130" y="30" as="targetPoint" />
          </mxGeometry>
        </mxCell>
        <mxCell id="ad1gADm1mFAbiEcde9q4-2" value="&lt;div&gt;点击&lt;/div&gt;删除/批量删除" style="text;html=1;align=center;verticalAlign=middle;whiteSpace=wrap;rounded=0;fontSize=14;fontFamily=宋体;" parent="ad1gADm1mFAbiEcde9q4-3" vertex="1">
          <mxGeometry x="9" width="110" height="26" as="geometry" />
        </mxCell>
        <mxCell id="ad1gADm1mFAbiEcde9q4-28" value="MySQL&lt;div&gt;数据库&lt;/div&gt;" style="shape=umlLifeline;perimeter=lifelinePerimeter;whiteSpace=wrap;html=1;container=1;dropTarget=0;collapsible=0;recursiveResize=0;outlineConnect=0;portConstraint=eastwest;newEdgeStyle={&quot;curved&quot;:0,&quot;rounded&quot;:0};fontFamily=宋体;fontSize=14;" parent="1" vertex="1">
          <mxGeometry x="595" y="50" width="80" height="270" as="geometry" />
        </mxCell>
        <mxCell id="ad1gADm1mFAbiEcde9q4-29" value="" style="html=1;points=[[0,0,0,0,5],[0,1,0,0,-5],[1,0,0,0,5],[1,1,0,0,-5]];perimeter=orthogonalPerimeter;outlineConnect=0;targetShapes=umlLifeline;portConstraint=eastwest;newEdgeStyle={&quot;curved&quot;:0,&quot;rounded&quot;:0};fontFamily=宋体;fontSize=14;" parent="ad1gADm1mFAbiEcde9q4-28" vertex="1">
          <mxGeometry x="35" y="50" width="10" height="200" as="geometry" />
        </mxCell>
        <mxCell id="ad1gADm1mFAbiEcde9q4-35" value="" style="group" parent="1" vertex="1" connectable="0">
          <mxGeometry x="510" y="170" width="120" height="30" as="geometry" />
        </mxCell>
        <mxCell id="ad1gADm1mFAbiEcde9q4-31" value="delete" style="text;html=1;align=center;verticalAlign=middle;whiteSpace=wrap;rounded=0;fontSize=14;fontFamily=宋体;spacing=0;" parent="ad1gADm1mFAbiEcde9q4-35" vertex="1">
          <mxGeometry width="116" height="26" as="geometry" />
        </mxCell>
        <mxCell id="ad1gADm1mFAbiEcde9q4-34" value="" style="endArrow=classic;html=1;rounded=0;fontSize=14;fontFamily=宋体;" parent="ad1gADm1mFAbiEcde9q4-35" edge="1">
          <mxGeometry width="50" height="50" relative="1" as="geometry">
            <mxPoint y="30" as="sourcePoint" />
            <mxPoint x="120" y="30" as="targetPoint" />
          </mxGeometry>
        </mxCell>
        <mxCell id="ad1gADm1mFAbiEcde9q4-42" value="" style="group" parent="1" vertex="1" connectable="0">
          <mxGeometry x="510" y="200" width="120.00472440944884" height="28" as="geometry" />
        </mxCell>
        <mxCell id="ad1gADm1mFAbiEcde9q4-40" value="操作结果" style="text;html=1;align=center;verticalAlign=middle;whiteSpace=wrap;rounded=0;fontSize=14;fontFamily=宋体;spacing=0;" parent="ad1gADm1mFAbiEcde9q4-42" vertex="1">
          <mxGeometry x="0.004724409448840561" y="4" width="120" height="26" as="geometry" />
        </mxCell>
        <mxCell id="ad1gADm1mFAbiEcde9q4-41" value="" style="endArrow=classic;html=1;rounded=0;" parent="ad1gADm1mFAbiEcde9q4-42" edge="1">
          <mxGeometry width="50" height="50" relative="1" as="geometry">
            <mxPoint x="120" y="28" as="sourcePoint" />
            <mxPoint y="28" as="targetPoint" />
          </mxGeometry>
        </mxCell>
        <mxCell id="ad1gADm1mFAbiEcde9q4-43" value="" style="group" parent="1" vertex="1" connectable="0">
          <mxGeometry x="204.75" y="130" width="140.5" height="55" as="geometry" />
        </mxCell>
        <mxCell id="1x29o_3ZwKhWgOv2N2SG-41" value="" style="endArrow=classic;html=1;rounded=0;fontSize=14;fontFamily=宋体;" parent="ad1gADm1mFAbiEcde9q4-43" edge="1">
          <mxGeometry width="50" height="50" relative="1" as="geometry">
            <mxPoint y="32" as="sourcePoint" />
            <mxPoint x="140.5" y="32" as="targetPoint" />
          </mxGeometry>
        </mxCell>
        <mxCell id="1x29o_3ZwKhWgOv2N2SG-42" value="发送POST&lt;div&gt;删除/批量删除请求&lt;/div&gt;" style="text;html=1;align=center;verticalAlign=middle;whiteSpace=wrap;rounded=0;fontSize=14;fontFamily=宋体;" parent="ad1gADm1mFAbiEcde9q4-43" vertex="1">
          <mxGeometry width="140" height="26" as="geometry" />
        </mxCell>
        <mxCell id="ad1gADm1mFAbiEcde9q4-26" value="&lt;span style=&quot;background-color: transparent; color: light-dark(rgb(0, 0, 0), rgb(255, 255, 255));&quot;&gt;delete&lt;/span&gt;&lt;div&gt;&lt;span style=&quot;background-color: transparent; color: light-dark(rgb(0, 0, 0), rgb(255, 255, 255));&quot;&gt;/batch-delete&lt;/span&gt;&lt;/div&gt;" style="text;html=1;align=center;verticalAlign=middle;whiteSpace=wrap;rounded=0;fontSize=14;fontFamily=宋体;" parent="ad1gADm1mFAbiEcde9q4-43" vertex="1">
          <mxGeometry x="16.25" y="36" width="110" height="26" as="geometry" />
        </mxCell>
        <mxCell id="1x29o_3ZwKhWgOv2N2SG-51" value="" style="endArrow=none;html=1;rounded=0;startArrow=classic;startFill=1;endFill=1;" parent="1" edge="1">
          <mxGeometry width="50" height="50" relative="1" as="geometry">
            <mxPoint x="500" y="185" as="sourcePoint" />
            <mxPoint x="355" y="185" as="targetPoint" />
          </mxGeometry>
        </mxCell>
        <mxCell id="1x29o_3ZwKhWgOv2N2SG-52" value="removeById&lt;div&gt;/&lt;span style=&quot;background-color: transparent; color: light-dark(rgb(0, 0, 0), rgb(255, 255, 255));&quot;&gt;removeByIds&lt;/span&gt;&lt;/div&gt;" style="text;html=1;align=center;verticalAlign=middle;whiteSpace=wrap;rounded=0;fontSize=14;fontFamily=宋体;spacing=0;" parent="1" vertex="1">
          <mxGeometry x="368.5" y="156" width="116" height="26" as="geometry" />
        </mxCell>
        <mxCell id="NB46rLQ9DUsZgHJJ-fcK-1" value="" style="group" vertex="1" connectable="0" parent="1">
          <mxGeometry x="357" y="210" width="140" height="28" as="geometry" />
        </mxCell>
        <mxCell id="NB46rLQ9DUsZgHJJ-fcK-2" value="操作结果" style="text;html=1;align=center;verticalAlign=middle;whiteSpace=wrap;rounded=0;fontSize=14;fontFamily=宋体;spacing=0;" vertex="1" parent="NB46rLQ9DUsZgHJJ-fcK-1">
          <mxGeometry x="0.005511594031756306" y="4" width="139.99448840596824" height="26" as="geometry" />
        </mxCell>
        <mxCell id="NB46rLQ9DUsZgHJJ-fcK-3" value="" style="endArrow=classic;html=1;rounded=0;" edge="1" parent="NB46rLQ9DUsZgHJJ-fcK-1">
          <mxGeometry width="50" height="50" relative="1" as="geometry">
            <mxPoint x="139.99448840596824" y="28" as="sourcePoint" />
            <mxPoint y="28" as="targetPoint" />
          </mxGeometry>
        </mxCell>
      </root>
    </mxGraphModel>
  </diagram>
</mxfile>
